<svg width="78" height="63" viewBox="0 0 78 63" fill="none" xmlns="http://www.w3.org/2000/svg">
<circle cx="25.983" cy="55.5" r="7.5" fill="white"/>
<circle cx="59.9821" cy="55.5" r="7.5" fill="white"/>
<path fill-rule="evenodd" clip-rule="evenodd" d="M11.062 0H64C64 0 78 14.812 78 33.688V48.938C78 48.938 77.812 53 74.875 53.001H73.166C71.992 46.74 66.507 42.001 59.906 42.001C53.306 42.001 47.82 46.74 46.646 53.001H39.242C38.068 46.74 32.583 42.001 25.983 42.001C19.383 42.001 13.897 46.74 12.724 53.001H10.625C10.625 53.001 8.061 52.377 8.061 49.189V33.574L22.812 32.814C22.812 32.814 28.295 32.211 29.102 29.058L5.446 27.804C3.58204 27.804 2.071 26.293 2.071 24.429C2.071 22.565 3.58204 21.054 5.446 21.054H14.502L22.812 20.626C22.812 20.626 30.989 20.018 31.75 16.821L31.554 16.778L3.469 14.938C1.55312 14.938 0 13.3849 0 11.469C0 9.55312 1.55312 8 3.469 8H8.062V3.125C8.062 3.125 7.874 0 11.062 0ZM52 8.938V23.938H67.812L62.062 8.938H52Z" fill="white"/>
</svg>
